<mxfile host="app.diagrams.net" agent="Mozilla/5.0 (Windows NT 10.0; Win64; x64) AppleWebKit/537.36 (KHTML, like Gecko) Chrome/134.0.0.0 Safari/537.36 Edg/134.0.0.0" version="26.1.1">
  <diagram name="Page-1" id="k5kNYtwtWH9kNCxRxYLz">
    <mxGraphModel grid="1" page="1" gridSize="10" guides="1" tooltips="1" connect="1" arrows="1" fold="1" pageScale="1" pageWidth="850" pageHeight="1100" background="#ffffff" math="0" shadow="0">
      <root>
        <mxCell id="0" />
        <mxCell id="1" parent="0" />
        <mxCell id="to0TJb7XdhagzbTe4of1-1" value="Phần mềm quản lý và thu phí ở chung cư Blue Moon" style="rounded=0;whiteSpace=wrap;html=1;fillColor=#dae8fc;strokeColor=#6c8ebf;" vertex="1" parent="1">
          <mxGeometry x="260" y="330" width="240" height="80" as="geometry" />
        </mxCell>
        <mxCell id="to0TJb7XdhagzbTe4of1-2" value="1. Quản lý dự án" style="rounded=0;whiteSpace=wrap;html=1;fillColor=#dae8fc;strokeColor=#6c8ebf;" vertex="1" parent="1">
          <mxGeometry x="-440" y="470" width="120" height="60" as="geometry" />
        </mxCell>
        <mxCell id="to0TJb7XdhagzbTe4of1-3" value="2.Xây dựng phần mềm" style="rounded=0;whiteSpace=wrap;html=1;fillColor=#dae8fc;strokeColor=#6c8ebf;" vertex="1" parent="1">
          <mxGeometry x="305" y="450" width="120" height="60" as="geometry" />
        </mxCell>
        <mxCell id="to0TJb7XdhagzbTe4of1-4" value="3. Chăm sóc hỗ trợ" style="rounded=0;whiteSpace=wrap;html=1;fillColor=#dae8fc;strokeColor=#6c8ebf;" vertex="1" parent="1">
          <mxGeometry x="1180" y="525" width="120" height="60" as="geometry" />
        </mxCell>
        <mxCell id="to0TJb7XdhagzbTe4of1-5" value="" style="endArrow=none;html=1;rounded=0;entryX=0.403;entryY=1.017;entryDx=0;entryDy=0;entryPerimeter=0;exitX=0.5;exitY=0;exitDx=0;exitDy=0;fillColor=#dae8fc;strokeColor=#6c8ebf;" edge="1" parent="1" source="to0TJb7XdhagzbTe4of1-2">
          <mxGeometry width="50" height="50" relative="1" as="geometry">
            <mxPoint x="150" y="480" as="sourcePoint" />
            <mxPoint x="346.72" y="411.36" as="targetPoint" />
            <Array as="points">
              <mxPoint x="-380" y="430" />
              <mxPoint x="347" y="430" />
            </Array>
          </mxGeometry>
        </mxCell>
        <mxCell id="to0TJb7XdhagzbTe4of1-9" value="" style="endArrow=none;html=1;rounded=0;entryX=0.436;entryY=0.988;entryDx=0;entryDy=0;entryPerimeter=0;fillColor=#dae8fc;strokeColor=#6c8ebf;" edge="1" parent="1" source="to0TJb7XdhagzbTe4of1-3" target="to0TJb7XdhagzbTe4of1-1">
          <mxGeometry width="50" height="50" relative="1" as="geometry">
            <mxPoint x="340" y="540" as="sourcePoint" />
            <mxPoint x="390" y="490" as="targetPoint" />
          </mxGeometry>
        </mxCell>
        <mxCell id="to0TJb7XdhagzbTe4of1-10" value="" style="endArrow=none;html=1;rounded=0;exitX=0.5;exitY=0;exitDx=0;exitDy=0;fillColor=#dae8fc;strokeColor=#6c8ebf;" edge="1" parent="1" source="to0TJb7XdhagzbTe4of1-4">
          <mxGeometry width="50" height="50" relative="1" as="geometry">
            <mxPoint x="340" y="540" as="sourcePoint" />
            <mxPoint x="390" y="410" as="targetPoint" />
            <Array as="points">
              <mxPoint x="1240" y="430" />
              <mxPoint x="890" y="430" />
              <mxPoint x="390" y="430" />
            </Array>
          </mxGeometry>
        </mxCell>
        <mxCell id="to0TJb7XdhagzbTe4of1-11" value="" style="endArrow=none;html=1;rounded=0;entryX=0.083;entryY=1.01;entryDx=0;entryDy=0;entryPerimeter=0;exitX=0;exitY=0.25;exitDx=0;exitDy=0;fillColor=#dae8fc;strokeColor=#6c8ebf;" edge="1" parent="1" source="to0TJb7XdhagzbTe4of1-20" target="to0TJb7XdhagzbTe4of1-2">
          <mxGeometry width="50" height="50" relative="1" as="geometry">
            <mxPoint x="-430" y="790" as="sourcePoint" />
            <mxPoint x="-420" y="540" as="targetPoint" />
            <Array as="points">
              <mxPoint x="-430" y="783" />
            </Array>
          </mxGeometry>
        </mxCell>
        <mxCell id="to0TJb7XdhagzbTe4of1-13" value="1.1. Lập kế&#xa;hoạch" style="rounded=0;whiteSpace=wrap;html=1;fillColor=#dae8fc;strokeColor=#6c8ebf;" vertex="1" parent="1">
          <mxGeometry x="-390" y="550" width="100" height="50" as="geometry" />
        </mxCell>
        <mxCell id="to0TJb7XdhagzbTe4of1-15" value="1.2. Giám sát và&#xa;kiểm soát" style="rounded=0;whiteSpace=wrap;html=1;fillColor=#dae8fc;strokeColor=#6c8ebf;" vertex="1" parent="1">
          <mxGeometry x="-390" y="620" width="100" height="50" as="geometry" />
        </mxCell>
        <mxCell id="to0TJb7XdhagzbTe4of1-18" value="1.3. Kết thúc dự&#xa;án" style="rounded=0;whiteSpace=wrap;html=1;fillColor=#dae8fc;strokeColor=#6c8ebf;" vertex="1" parent="1">
          <mxGeometry x="-390" y="700" width="100" height="50" as="geometry" />
        </mxCell>
        <mxCell id="to0TJb7XdhagzbTe4of1-20" value="1.4. Quản lý hợp&#xa;đồng" style="rounded=0;whiteSpace=wrap;html=1;fillColor=#dae8fc;strokeColor=#6c8ebf;" vertex="1" parent="1">
          <mxGeometry x="-390" y="770" width="100" height="50" as="geometry" />
        </mxCell>
        <mxCell id="to0TJb7XdhagzbTe4of1-21" value="" style="endArrow=none;html=1;rounded=0;entryX=0;entryY=0.5;entryDx=0;entryDy=0;fillColor=#dae8fc;strokeColor=#6c8ebf;" edge="1" parent="1" target="to0TJb7XdhagzbTe4of1-13">
          <mxGeometry width="50" height="50" relative="1" as="geometry">
            <mxPoint x="-430" y="575" as="sourcePoint" />
            <mxPoint x="120" y="470" as="targetPoint" />
          </mxGeometry>
        </mxCell>
        <mxCell id="to0TJb7XdhagzbTe4of1-22" value="" style="endArrow=none;html=1;rounded=0;entryX=0;entryY=0.5;entryDx=0;entryDy=0;fillColor=#dae8fc;strokeColor=#6c8ebf;" edge="1" parent="1">
          <mxGeometry width="50" height="50" relative="1" as="geometry">
            <mxPoint x="-430" y="650" as="sourcePoint" />
            <mxPoint x="-390" y="650" as="targetPoint" />
          </mxGeometry>
        </mxCell>
        <mxCell id="to0TJb7XdhagzbTe4of1-23" value="" style="endArrow=none;html=1;rounded=0;entryX=0;entryY=0.5;entryDx=0;entryDy=0;fillColor=#dae8fc;strokeColor=#6c8ebf;" edge="1" parent="1">
          <mxGeometry width="50" height="50" relative="1" as="geometry">
            <mxPoint x="-430" y="724.5" as="sourcePoint" />
            <mxPoint x="-390" y="724.5" as="targetPoint" />
          </mxGeometry>
        </mxCell>
        <mxCell id="to0TJb7XdhagzbTe4of1-25" value="" style="endArrow=none;html=1;rounded=0;entryX=0.083;entryY=1.01;entryDx=0;entryDy=0;entryPerimeter=0;exitX=0;exitY=0.5;exitDx=0;exitDy=0;fillColor=#dae8fc;strokeColor=#6c8ebf;" edge="1" parent="1" source="to0TJb7XdhagzbTe4of1-29">
          <mxGeometry width="50" height="50" relative="1" as="geometry">
            <mxPoint x="1240" y="844.5" as="sourcePoint" />
            <mxPoint x="1240" y="585.5" as="targetPoint" />
            <Array as="points">
              <mxPoint x="1240" y="780" />
            </Array>
          </mxGeometry>
        </mxCell>
        <mxCell id="to0TJb7XdhagzbTe4of1-27" value="&lt;div&gt;3.1. Hỗ trợ người dùng cuối&lt;/div&gt;&lt;div&gt;&lt;br&gt;&lt;/div&gt;" style="rounded=0;whiteSpace=wrap;html=1;fillColor=#dae8fc;strokeColor=#6c8ebf;" vertex="1" parent="1">
          <mxGeometry x="1280" y="605" width="100" height="50" as="geometry" />
        </mxCell>
        <mxCell id="to0TJb7XdhagzbTe4of1-28" value="&lt;div&gt;3.2. Áp dụng&lt;/div&gt;&lt;div&gt;công cụ hỗ trợ&lt;/div&gt;" style="rounded=0;whiteSpace=wrap;html=1;fillColor=#dae8fc;strokeColor=#6c8ebf;" vertex="1" parent="1">
          <mxGeometry x="1280" y="685" width="100" height="50" as="geometry" />
        </mxCell>
        <mxCell id="to0TJb7XdhagzbTe4of1-29" value="3.3. Áp dụng tiêu chuẩn" style="rounded=0;whiteSpace=wrap;html=1;fillColor=#dae8fc;strokeColor=#6c8ebf;" vertex="1" parent="1">
          <mxGeometry x="1280" y="755" width="100" height="50" as="geometry" />
        </mxCell>
        <mxCell id="to0TJb7XdhagzbTe4of1-31" value="" style="endArrow=none;html=1;rounded=0;entryX=0;entryY=0.5;entryDx=0;entryDy=0;fillColor=#dae8fc;strokeColor=#6c8ebf;" edge="1" parent="1">
          <mxGeometry width="50" height="50" relative="1" as="geometry">
            <mxPoint x="1240" y="635" as="sourcePoint" />
            <mxPoint x="1280" y="635" as="targetPoint" />
          </mxGeometry>
        </mxCell>
        <mxCell id="to0TJb7XdhagzbTe4of1-32" value="" style="endArrow=none;html=1;rounded=0;entryX=0;entryY=0.5;entryDx=0;entryDy=0;fillColor=#dae8fc;strokeColor=#6c8ebf;" edge="1" parent="1">
          <mxGeometry width="50" height="50" relative="1" as="geometry">
            <mxPoint x="1240" y="709.5" as="sourcePoint" />
            <mxPoint x="1280" y="709.5" as="targetPoint" />
          </mxGeometry>
        </mxCell>
        <mxCell id="to0TJb7XdhagzbTe4of1-33" value="2.1. Quản lý thu&lt;br&gt;phí" style="rounded=0;whiteSpace=wrap;html=1;fillColor=#dae8fc;strokeColor=#6c8ebf;" vertex="1" parent="1">
          <mxGeometry x="-220" y="540" width="120" height="60" as="geometry" />
        </mxCell>
        <mxCell id="to0TJb7XdhagzbTe4of1-34" value="2.2. Quản lý&#xa;người dùng" style="rounded=0;whiteSpace=wrap;html=1;fillColor=#dae8fc;strokeColor=#6c8ebf;" vertex="1" parent="1">
          <mxGeometry x="250" y="540" width="120" height="60" as="geometry" />
        </mxCell>
        <mxCell id="to0TJb7XdhagzbTe4of1-35" value="2.3. Quản lý hộ&#xa;gia đình" style="rounded=0;whiteSpace=wrap;html=1;fillColor=#dae8fc;strokeColor=#6c8ebf;" vertex="1" parent="1">
          <mxGeometry x="690" y="550" width="120" height="60" as="geometry" />
        </mxCell>
        <mxCell id="to0TJb7XdhagzbTe4of1-36" value="2.1.1. &#xa;Thiết lập&#xa;yêu cầu" style="rounded=0;whiteSpace=wrap;html=1;fillColor=#dae8fc;strokeColor=#6c8ebf;" vertex="1" parent="1">
          <mxGeometry x="-80" y="610" width="120" height="60" as="geometry" />
        </mxCell>
        <mxCell id="to0TJb7XdhagzbTe4of1-37" value="2.1.2. Lập kế&#xa;hoạch phân&#xa;đoạn" style="rounded=0;whiteSpace=wrap;html=1;fillColor=#dae8fc;strokeColor=#6c8ebf;" vertex="1" parent="1">
          <mxGeometry x="-80" y="682.5" width="120" height="60" as="geometry" />
        </mxCell>
        <mxCell id="to0TJb7XdhagzbTe4of1-38" value="2.1.3. &#xa;Phát triển" style="rounded=0;whiteSpace=wrap;html=1;fillColor=#dae8fc;strokeColor=#6c8ebf;" vertex="1" parent="1">
          <mxGeometry x="-80" y="765" width="120" height="60" as="geometry" />
        </mxCell>
        <mxCell id="to0TJb7XdhagzbTe4of1-39" value="2.1.4.&lt;br&gt;Kiểm thử" style="rounded=0;whiteSpace=wrap;html=1;fillColor=#dae8fc;strokeColor=#6c8ebf;" vertex="1" parent="1">
          <mxGeometry x="-80" y="845" width="120" height="60" as="geometry" />
        </mxCell>
        <mxCell id="to0TJb7XdhagzbTe4of1-56" value="" style="endArrow=none;html=1;rounded=0;entryX=0.5;entryY=1;entryDx=0;entryDy=0;exitX=0.5;exitY=0;exitDx=0;exitDy=0;fillColor=#dae8fc;strokeColor=#6c8ebf;" edge="1" parent="1" source="to0TJb7XdhagzbTe4of1-33" target="to0TJb7XdhagzbTe4of1-3">
          <mxGeometry width="50" height="50" relative="1" as="geometry">
            <mxPoint x="240" y="610" as="sourcePoint" />
            <mxPoint x="290" y="560" as="targetPoint" />
            <Array as="points">
              <mxPoint x="-160" y="530" />
              <mxPoint x="365" y="530" />
            </Array>
          </mxGeometry>
        </mxCell>
        <mxCell id="to0TJb7XdhagzbTe4of1-57" value="" style="endArrow=none;html=1;rounded=0;exitX=0.5;exitY=0;exitDx=0;exitDy=0;fillColor=#dae8fc;strokeColor=#6c8ebf;" edge="1" parent="1" source="to0TJb7XdhagzbTe4of1-35">
          <mxGeometry width="50" height="50" relative="1" as="geometry">
            <mxPoint x="1450" y="597.5" as="sourcePoint" />
            <mxPoint x="360" y="530" as="targetPoint" />
            <Array as="points">
              <mxPoint x="750" y="530" />
            </Array>
          </mxGeometry>
        </mxCell>
        <mxCell id="to0TJb7XdhagzbTe4of1-58" value="" style="endArrow=none;html=1;rounded=0;fillColor=#dae8fc;strokeColor=#6c8ebf;" edge="1" parent="1" source="to0TJb7XdhagzbTe4of1-34">
          <mxGeometry width="50" height="50" relative="1" as="geometry">
            <mxPoint x="470" y="610" as="sourcePoint" />
            <mxPoint x="310" y="530" as="targetPoint" />
          </mxGeometry>
        </mxCell>
        <mxCell id="to0TJb7XdhagzbTe4of1-60" value="&lt;b&gt;&lt;br&gt;&lt;/b&gt;&amp;nbsp;2.2&lt;span style=&quot;background-color: transparent; color: light-dark(rgb(0, 0, 0), rgb(255, 255, 255));&quot;&gt;.3.1 Đăng ký tài khoản&lt;/span&gt;&lt;div&gt;&lt;div&gt;&lt;br&gt;&lt;/div&gt;&lt;/div&gt;" style="rounded=0;whiteSpace=wrap;html=1;fillColor=#dae8fc;strokeColor=#6c8ebf;" vertex="1" parent="1">
          <mxGeometry x="500" y="741" width="100" height="50" as="geometry" />
        </mxCell>
        <mxCell id="01i8dN40vpGwu-gVk1U0-1" value="" style="endArrow=none;html=1;rounded=0;exitX=-0.001;exitY=0.437;exitDx=0;exitDy=0;fillColor=#dae8fc;strokeColor=#6c8ebf;exitPerimeter=0;entryX=0.838;entryY=1.007;entryDx=0;entryDy=0;entryPerimeter=0;" edge="1" parent="1" source="01i8dN40vpGwu-gVk1U0-14" target="to0TJb7XdhagzbTe4of1-33">
          <mxGeometry width="50" height="50" relative="1" as="geometry">
            <mxPoint x="-80" y="856.5" as="sourcePoint" />
            <mxPoint x="-120" y="605" as="targetPoint" />
            <Array as="points">
              <mxPoint x="-120" y="960" />
            </Array>
          </mxGeometry>
        </mxCell>
        <mxCell id="01i8dN40vpGwu-gVk1U0-6" value="" style="endArrow=none;html=1;rounded=0;entryX=0;entryY=0.5;entryDx=0;entryDy=0;fillColor=#dae8fc;strokeColor=#6c8ebf;" edge="1" parent="1" target="to0TJb7XdhagzbTe4of1-36">
          <mxGeometry width="50" height="50" relative="1" as="geometry">
            <mxPoint x="-120" y="640" as="sourcePoint" />
            <mxPoint x="-80" y="650" as="targetPoint" />
          </mxGeometry>
        </mxCell>
        <mxCell id="01i8dN40vpGwu-gVk1U0-7" value="" style="endArrow=none;html=1;rounded=0;entryX=-0.005;entryY=0.575;entryDx=0;entryDy=0;fillColor=#dae8fc;strokeColor=#6c8ebf;entryPerimeter=0;" edge="1" parent="1" target="to0TJb7XdhagzbTe4of1-37">
          <mxGeometry width="50" height="50" relative="1" as="geometry">
            <mxPoint x="-120" y="717" as="sourcePoint" />
            <mxPoint x="-80" y="724" as="targetPoint" />
          </mxGeometry>
        </mxCell>
        <mxCell id="01i8dN40vpGwu-gVk1U0-8" value="" style="endArrow=none;html=1;rounded=0;entryX=0;entryY=0.5;entryDx=0;entryDy=0;fillColor=#dae8fc;strokeColor=#6c8ebf;" edge="1" parent="1" target="to0TJb7XdhagzbTe4of1-38">
          <mxGeometry width="50" height="50" relative="1" as="geometry">
            <mxPoint x="-120" y="795" as="sourcePoint" />
            <mxPoint x="-80" y="798.5" as="targetPoint" />
          </mxGeometry>
        </mxCell>
        <mxCell id="01i8dN40vpGwu-gVk1U0-11" value="2.1.3.1. &#xa;Tạo khoản thu" style="rounded=0;whiteSpace=wrap;html=1;fillColor=#dae8fc;strokeColor=#6c8ebf;" vertex="1" parent="1">
          <mxGeometry x="80" y="735" width="100" height="55" as="geometry" />
        </mxCell>
        <mxCell id="01i8dN40vpGwu-gVk1U0-12" value="2.1.3.2.&amp;nbsp;&lt;br&gt;Thu phí" style="rounded=0;whiteSpace=wrap;html=1;fillColor=#dae8fc;strokeColor=#6c8ebf;" vertex="1" parent="1">
          <mxGeometry x="80" y="800" width="100" height="50" as="geometry" />
        </mxCell>
        <mxCell id="01i8dN40vpGwu-gVk1U0-13" value="2.1.3.3. Thống kê&#xa;các khoản đóng&#xa;góp" style="rounded=0;whiteSpace=wrap;html=1;fillColor=#dae8fc;strokeColor=#6c8ebf;" vertex="1" parent="1">
          <mxGeometry x="80" y="860" width="100" height="60" as="geometry" />
        </mxCell>
        <mxCell id="01i8dN40vpGwu-gVk1U0-14" value="2.1.5.&lt;br&gt;Vận hành" style="rounded=0;whiteSpace=wrap;html=1;fillColor=#dae8fc;strokeColor=#6c8ebf;" vertex="1" parent="1">
          <mxGeometry x="-80" y="934" width="120" height="60" as="geometry" />
        </mxCell>
        <mxCell id="01i8dN40vpGwu-gVk1U0-15" value="" style="endArrow=none;html=1;rounded=0;entryX=0;entryY=0.5;entryDx=0;entryDy=0;fillColor=#dae8fc;strokeColor=#6c8ebf;" edge="1" parent="1" target="to0TJb7XdhagzbTe4of1-39">
          <mxGeometry width="50" height="50" relative="1" as="geometry">
            <mxPoint x="-120" y="874.71" as="sourcePoint" />
            <mxPoint x="-80" y="874.71" as="targetPoint" />
          </mxGeometry>
        </mxCell>
        <mxCell id="01i8dN40vpGwu-gVk1U0-19" value="" style="endArrow=none;html=1;rounded=0;fillColor=#dae8fc;strokeColor=#6c8ebf;entryX=1.008;entryY=0.396;entryDx=0;entryDy=0;entryPerimeter=0;" edge="1" parent="1" target="to0TJb7XdhagzbTe4of1-38">
          <mxGeometry width="50" height="50" relative="1" as="geometry">
            <mxPoint x="80" y="893" as="sourcePoint" />
            <mxPoint x="61" y="532.5" as="targetPoint" />
            <Array as="points">
              <mxPoint x="60" y="892.5" />
              <mxPoint x="60" y="789" />
            </Array>
          </mxGeometry>
        </mxCell>
        <mxCell id="01i8dN40vpGwu-gVk1U0-20" value="" style="endArrow=none;html=1;rounded=0;fillColor=#dae8fc;strokeColor=#6c8ebf;" edge="1" parent="1">
          <mxGeometry width="50" height="50" relative="1" as="geometry">
            <mxPoint x="60" y="830" as="sourcePoint" />
            <mxPoint x="80" y="830" as="targetPoint" />
          </mxGeometry>
        </mxCell>
        <mxCell id="01i8dN40vpGwu-gVk1U0-21" value="" style="endArrow=none;html=1;rounded=0;entryX=0;entryY=0.5;entryDx=0;entryDy=0;fillColor=#dae8fc;strokeColor=#6c8ebf;" edge="1" parent="1" target="01i8dN40vpGwu-gVk1U0-11">
          <mxGeometry width="50" height="50" relative="1" as="geometry">
            <mxPoint x="60" y="790" as="sourcePoint" />
            <mxPoint x="80" y="757.5" as="targetPoint" />
            <Array as="points">
              <mxPoint x="60" y="763" />
            </Array>
          </mxGeometry>
        </mxCell>
        <mxCell id="01i8dN40vpGwu-gVk1U0-22" value="2.2.1.&amp;nbsp;&lt;br&gt;Thiết lập&lt;br&gt;yêu cầu" style="rounded=0;whiteSpace=wrap;html=1;fillColor=#dae8fc;strokeColor=#6c8ebf;" vertex="1" parent="1">
          <mxGeometry x="340" y="615" width="120" height="60" as="geometry" />
        </mxCell>
        <mxCell id="01i8dN40vpGwu-gVk1U0-23" value="2.2.2. Lập kế&lt;br&gt;hoạch phân&lt;br&gt;đoạn" style="rounded=0;whiteSpace=wrap;html=1;fillColor=#dae8fc;strokeColor=#6c8ebf;" vertex="1" parent="1">
          <mxGeometry x="340" y="687.5" width="120" height="60" as="geometry" />
        </mxCell>
        <mxCell id="01i8dN40vpGwu-gVk1U0-24" value="2.2.3.&amp;nbsp;&lt;br&gt;Phát triển" style="rounded=0;whiteSpace=wrap;html=1;fillColor=#dae8fc;strokeColor=#6c8ebf;" vertex="1" parent="1">
          <mxGeometry x="340" y="770" width="120" height="60" as="geometry" />
        </mxCell>
        <mxCell id="01i8dN40vpGwu-gVk1U0-25" value="2.2.4.&lt;br&gt;Kiểm thử" style="rounded=0;whiteSpace=wrap;html=1;fillColor=#dae8fc;strokeColor=#6c8ebf;" vertex="1" parent="1">
          <mxGeometry x="340" y="850" width="120" height="60" as="geometry" />
        </mxCell>
        <mxCell id="01i8dN40vpGwu-gVk1U0-26" value="" style="endArrow=none;html=1;rounded=0;exitX=-0.001;exitY=0.437;exitDx=0;exitDy=0;fillColor=#dae8fc;strokeColor=#6c8ebf;exitPerimeter=0;" edge="1" parent="1" source="01i8dN40vpGwu-gVk1U0-33">
          <mxGeometry width="50" height="50" relative="1" as="geometry">
            <mxPoint x="340" y="861.5" as="sourcePoint" />
            <mxPoint x="300" y="600" as="targetPoint" />
            <Array as="points">
              <mxPoint x="300" y="965" />
            </Array>
          </mxGeometry>
        </mxCell>
        <mxCell id="01i8dN40vpGwu-gVk1U0-27" value="" style="endArrow=none;html=1;rounded=0;entryX=0;entryY=0.5;entryDx=0;entryDy=0;fillColor=#dae8fc;strokeColor=#6c8ebf;" edge="1" parent="1" target="01i8dN40vpGwu-gVk1U0-22">
          <mxGeometry width="50" height="50" relative="1" as="geometry">
            <mxPoint x="300" y="645" as="sourcePoint" />
            <mxPoint x="340" y="655" as="targetPoint" />
          </mxGeometry>
        </mxCell>
        <mxCell id="01i8dN40vpGwu-gVk1U0-28" value="" style="endArrow=none;html=1;rounded=0;entryX=-0.005;entryY=0.575;entryDx=0;entryDy=0;fillColor=#dae8fc;strokeColor=#6c8ebf;entryPerimeter=0;" edge="1" parent="1" target="01i8dN40vpGwu-gVk1U0-23">
          <mxGeometry width="50" height="50" relative="1" as="geometry">
            <mxPoint x="300" y="722" as="sourcePoint" />
            <mxPoint x="340" y="729" as="targetPoint" />
          </mxGeometry>
        </mxCell>
        <mxCell id="01i8dN40vpGwu-gVk1U0-29" value="" style="endArrow=none;html=1;rounded=0;entryX=0;entryY=0.5;entryDx=0;entryDy=0;fillColor=#dae8fc;strokeColor=#6c8ebf;" edge="1" parent="1" target="01i8dN40vpGwu-gVk1U0-24">
          <mxGeometry width="50" height="50" relative="1" as="geometry">
            <mxPoint x="300" y="800" as="sourcePoint" />
            <mxPoint x="340" y="803.5" as="targetPoint" />
          </mxGeometry>
        </mxCell>
        <mxCell id="01i8dN40vpGwu-gVk1U0-33" value="2.2.5.&lt;br&gt;Vận hành" style="rounded=0;whiteSpace=wrap;html=1;fillColor=#dae8fc;strokeColor=#6c8ebf;" vertex="1" parent="1">
          <mxGeometry x="340" y="939" width="120" height="60" as="geometry" />
        </mxCell>
        <mxCell id="01i8dN40vpGwu-gVk1U0-34" value="" style="endArrow=none;html=1;rounded=0;entryX=0;entryY=0.5;entryDx=0;entryDy=0;fillColor=#dae8fc;strokeColor=#6c8ebf;" edge="1" parent="1" target="01i8dN40vpGwu-gVk1U0-25">
          <mxGeometry width="50" height="50" relative="1" as="geometry">
            <mxPoint x="300" y="879.71" as="sourcePoint" />
            <mxPoint x="340" y="879.71" as="targetPoint" />
          </mxGeometry>
        </mxCell>
        <mxCell id="01i8dN40vpGwu-gVk1U0-35" value="" style="endArrow=none;html=1;rounded=0;fillColor=#dae8fc;strokeColor=#6c8ebf;entryX=1.008;entryY=0.396;entryDx=0;entryDy=0;entryPerimeter=0;" edge="1" parent="1" target="01i8dN40vpGwu-gVk1U0-24">
          <mxGeometry width="50" height="50" relative="1" as="geometry">
            <mxPoint x="500" y="898" as="sourcePoint" />
            <mxPoint x="481" y="537.5" as="targetPoint" />
            <Array as="points">
              <mxPoint x="480" y="897.5" />
              <mxPoint x="480" y="794" />
            </Array>
          </mxGeometry>
        </mxCell>
        <mxCell id="01i8dN40vpGwu-gVk1U0-36" value="" style="endArrow=none;html=1;rounded=0;fillColor=#dae8fc;strokeColor=#6c8ebf;" edge="1" parent="1">
          <mxGeometry width="50" height="50" relative="1" as="geometry">
            <mxPoint x="480" y="835" as="sourcePoint" />
            <mxPoint x="500" y="835" as="targetPoint" />
          </mxGeometry>
        </mxCell>
        <mxCell id="01i8dN40vpGwu-gVk1U0-37" value="" style="endArrow=none;html=1;rounded=0;entryX=0;entryY=0.5;entryDx=0;entryDy=0;fillColor=#dae8fc;strokeColor=#6c8ebf;" edge="1" parent="1">
          <mxGeometry width="50" height="50" relative="1" as="geometry">
            <mxPoint x="480" y="795" as="sourcePoint" />
            <mxPoint x="499.99999999999955" y="767.5" as="targetPoint" />
            <Array as="points">
              <mxPoint x="480" y="768" />
            </Array>
          </mxGeometry>
        </mxCell>
        <mxCell id="01i8dN40vpGwu-gVk1U0-38" value="&lt;br&gt;2.2.3.2 Phân quyền và quản lý vai trò&lt;div&gt;&lt;br&gt;&lt;/div&gt;" style="rounded=0;whiteSpace=wrap;html=1;fillColor=#dae8fc;strokeColor=#6c8ebf;" vertex="1" parent="1">
          <mxGeometry x="500" y="805.0000000000001" width="100" height="50" as="geometry" />
        </mxCell>
        <mxCell id="01i8dN40vpGwu-gVk1U0-39" value="&lt;br&gt;2.2.3.3 Bảo mật và xác thực người dùng&lt;div&gt;&lt;br&gt;&lt;/div&gt;" style="rounded=0;whiteSpace=wrap;html=1;fillColor=#dae8fc;strokeColor=#6c8ebf;" vertex="1" parent="1">
          <mxGeometry x="500" y="865.0000000000001" width="100" height="64" as="geometry" />
        </mxCell>
        <mxCell id="01i8dN40vpGwu-gVk1U0-40" value="2.2.3.4 Quản lý thông tin cá nhân&lt;div&gt;&lt;br&gt;&lt;/div&gt;" style="rounded=0;whiteSpace=wrap;html=1;fillColor=#dae8fc;strokeColor=#6c8ebf;" vertex="1" parent="1">
          <mxGeometry x="500" y="939.0000000000001" width="100" height="50" as="geometry" />
        </mxCell>
        <mxCell id="01i8dN40vpGwu-gVk1U0-41" value="" style="endArrow=none;html=1;rounded=0;entryX=0;entryY=0.5;entryDx=0;entryDy=0;strokeColor=#7EA6E0;" edge="1" parent="1" target="01i8dN40vpGwu-gVk1U0-40">
          <mxGeometry width="50" height="50" relative="1" as="geometry">
            <mxPoint x="480" y="895" as="sourcePoint" />
            <mxPoint x="490" y="1065" as="targetPoint" />
            <Array as="points">
              <mxPoint x="480" y="964" />
            </Array>
          </mxGeometry>
        </mxCell>
        <mxCell id="01i8dN40vpGwu-gVk1U0-42" value="" style="endArrow=none;html=1;rounded=0;fillColor=#dae8fc;strokeColor=#6c8ebf;entryX=1;entryY=0.5;entryDx=0;entryDy=0;" edge="1" parent="1" target="01i8dN40vpGwu-gVk1U0-53">
          <mxGeometry width="50" height="50" relative="1" as="geometry">
            <mxPoint x="1000" y="946.5" as="sourcePoint" />
            <mxPoint x="1000" y="642.5" as="targetPoint" />
            <Array as="points">
              <mxPoint x="1000" y="810" />
            </Array>
          </mxGeometry>
        </mxCell>
        <mxCell id="01i8dN40vpGwu-gVk1U0-43" value="&lt;br&gt;2.3.3.1 Quản lý danh sách hộ gia đình&lt;div&gt;&lt;br&gt;&lt;/div&gt;" style="rounded=0;whiteSpace=wrap;html=1;fillColor=#dae8fc;strokeColor=#6c8ebf;" vertex="1" parent="1">
          <mxGeometry x="1040" y="696.5" width="100" height="50" as="geometry" />
        </mxCell>
        <mxCell id="01i8dN40vpGwu-gVk1U0-44" value="2.3.3.2 Quản lý thông tin cư dân&lt;div&gt;&lt;br&gt;&lt;/div&gt;" style="rounded=0;whiteSpace=wrap;html=1;fillColor=#dae8fc;strokeColor=#6c8ebf;" vertex="1" parent="1">
          <mxGeometry x="1040" y="766.5" width="100" height="50" as="geometry" />
        </mxCell>
        <mxCell id="01i8dN40vpGwu-gVk1U0-45" value="2.3.3.3 Thống kê và báo cáo dân cư" style="rounded=0;whiteSpace=wrap;html=1;fillColor=#dae8fc;strokeColor=#6c8ebf;" vertex="1" parent="1">
          <mxGeometry x="1040" y="846.5" width="100" height="50" as="geometry" />
        </mxCell>
        <mxCell id="01i8dN40vpGwu-gVk1U0-46" value="2.3.3.4 Quản lý phản hồi và khiếu nại&lt;div&gt;&lt;br&gt;&lt;/div&gt;" style="rounded=0;whiteSpace=wrap;html=1;fillColor=#dae8fc;strokeColor=#6c8ebf;" vertex="1" parent="1">
          <mxGeometry x="1040" y="916.5" width="100" height="61" as="geometry" />
        </mxCell>
        <mxCell id="01i8dN40vpGwu-gVk1U0-47" value="" style="endArrow=none;html=1;rounded=0;entryX=0;entryY=0.5;entryDx=0;entryDy=0;fillColor=#dae8fc;strokeColor=#6c8ebf;" edge="1" parent="1" target="01i8dN40vpGwu-gVk1U0-43">
          <mxGeometry width="50" height="50" relative="1" as="geometry">
            <mxPoint x="1000" y="721.5" as="sourcePoint" />
            <mxPoint x="1550" y="616.5" as="targetPoint" />
          </mxGeometry>
        </mxCell>
        <mxCell id="01i8dN40vpGwu-gVk1U0-48" value="" style="endArrow=none;html=1;rounded=0;entryX=0;entryY=0.5;entryDx=0;entryDy=0;fillColor=#dae8fc;strokeColor=#6c8ebf;" edge="1" parent="1">
          <mxGeometry width="50" height="50" relative="1" as="geometry">
            <mxPoint x="1000" y="796.5" as="sourcePoint" />
            <mxPoint x="1040" y="796.5" as="targetPoint" />
          </mxGeometry>
        </mxCell>
        <mxCell id="01i8dN40vpGwu-gVk1U0-49" value="" style="endArrow=none;html=1;rounded=0;entryX=0;entryY=0.5;entryDx=0;entryDy=0;fillColor=#dae8fc;strokeColor=#6c8ebf;" edge="1" parent="1">
          <mxGeometry width="50" height="50" relative="1" as="geometry">
            <mxPoint x="1000" y="946.47" as="sourcePoint" />
            <mxPoint x="1040" y="946.47" as="targetPoint" />
          </mxGeometry>
        </mxCell>
        <mxCell id="01i8dN40vpGwu-gVk1U0-50" value="" style="endArrow=none;html=1;rounded=0;entryX=0;entryY=0.5;entryDx=0;entryDy=0;fillColor=#dae8fc;strokeColor=#6c8ebf;" edge="1" parent="1">
          <mxGeometry width="50" height="50" relative="1" as="geometry">
            <mxPoint x="1000" y="870.97" as="sourcePoint" />
            <mxPoint x="1040" y="870.97" as="targetPoint" />
          </mxGeometry>
        </mxCell>
        <mxCell id="01i8dN40vpGwu-gVk1U0-51" value="2.3.1.&amp;nbsp;&lt;br&gt;Thiết lập&lt;br&gt;yêu cầu" style="rounded=0;whiteSpace=wrap;html=1;fillColor=#dae8fc;strokeColor=#6c8ebf;" vertex="1" parent="1">
          <mxGeometry x="810" y="625" width="120" height="60" as="geometry" />
        </mxCell>
        <mxCell id="01i8dN40vpGwu-gVk1U0-52" value="2.3.2. Lập kế&lt;br&gt;hoạch phân&lt;br&gt;đoạn" style="rounded=0;whiteSpace=wrap;html=1;fillColor=#dae8fc;strokeColor=#6c8ebf;" vertex="1" parent="1">
          <mxGeometry x="810" y="697.5" width="120" height="60" as="geometry" />
        </mxCell>
        <mxCell id="01i8dN40vpGwu-gVk1U0-53" value="2.3.3.&amp;nbsp;&lt;br&gt;Phát triển" style="rounded=0;whiteSpace=wrap;html=1;fillColor=#dae8fc;strokeColor=#6c8ebf;" vertex="1" parent="1">
          <mxGeometry x="810" y="780" width="120" height="60" as="geometry" />
        </mxCell>
        <mxCell id="01i8dN40vpGwu-gVk1U0-54" value="2.3.4.&lt;br&gt;Kiểm thử" style="rounded=0;whiteSpace=wrap;html=1;fillColor=#dae8fc;strokeColor=#6c8ebf;" vertex="1" parent="1">
          <mxGeometry x="810" y="860" width="120" height="60" as="geometry" />
        </mxCell>
        <mxCell id="01i8dN40vpGwu-gVk1U0-55" value="" style="endArrow=none;html=1;rounded=0;exitX=-0.001;exitY=0.437;exitDx=0;exitDy=0;fillColor=#dae8fc;strokeColor=#6c8ebf;exitPerimeter=0;entryX=0.664;entryY=0.984;entryDx=0;entryDy=0;entryPerimeter=0;" edge="1" parent="1" source="01i8dN40vpGwu-gVk1U0-59" target="to0TJb7XdhagzbTe4of1-35">
          <mxGeometry width="50" height="50" relative="1" as="geometry">
            <mxPoint x="810" y="871.5" as="sourcePoint" />
            <mxPoint x="771" y="615" as="targetPoint" />
            <Array as="points">
              <mxPoint x="770" y="975" />
            </Array>
          </mxGeometry>
        </mxCell>
        <mxCell id="01i8dN40vpGwu-gVk1U0-56" value="" style="endArrow=none;html=1;rounded=0;entryX=0;entryY=0.5;entryDx=0;entryDy=0;fillColor=#dae8fc;strokeColor=#6c8ebf;" edge="1" parent="1" target="01i8dN40vpGwu-gVk1U0-51">
          <mxGeometry width="50" height="50" relative="1" as="geometry">
            <mxPoint x="770" y="655" as="sourcePoint" />
            <mxPoint x="810" y="665" as="targetPoint" />
          </mxGeometry>
        </mxCell>
        <mxCell id="01i8dN40vpGwu-gVk1U0-57" value="" style="endArrow=none;html=1;rounded=0;entryX=-0.005;entryY=0.575;entryDx=0;entryDy=0;fillColor=#dae8fc;strokeColor=#6c8ebf;entryPerimeter=0;" edge="1" parent="1" target="01i8dN40vpGwu-gVk1U0-52">
          <mxGeometry width="50" height="50" relative="1" as="geometry">
            <mxPoint x="770" y="732" as="sourcePoint" />
            <mxPoint x="810" y="739" as="targetPoint" />
          </mxGeometry>
        </mxCell>
        <mxCell id="01i8dN40vpGwu-gVk1U0-58" value="" style="endArrow=none;html=1;rounded=0;entryX=0;entryY=0.5;entryDx=0;entryDy=0;fillColor=#dae8fc;strokeColor=#6c8ebf;" edge="1" parent="1" target="01i8dN40vpGwu-gVk1U0-53">
          <mxGeometry width="50" height="50" relative="1" as="geometry">
            <mxPoint x="770" y="810" as="sourcePoint" />
            <mxPoint x="810" y="813.5" as="targetPoint" />
          </mxGeometry>
        </mxCell>
        <mxCell id="01i8dN40vpGwu-gVk1U0-59" value="2.3.5.&lt;br&gt;Vận hành" style="rounded=0;whiteSpace=wrap;html=1;fillColor=#dae8fc;strokeColor=#6c8ebf;" vertex="1" parent="1">
          <mxGeometry x="810" y="949" width="120" height="60" as="geometry" />
        </mxCell>
        <mxCell id="01i8dN40vpGwu-gVk1U0-60" value="" style="endArrow=none;html=1;rounded=0;entryX=0;entryY=0.5;entryDx=0;entryDy=0;fillColor=#dae8fc;strokeColor=#6c8ebf;" edge="1" parent="1" target="01i8dN40vpGwu-gVk1U0-54">
          <mxGeometry width="50" height="50" relative="1" as="geometry">
            <mxPoint x="770" y="889.71" as="sourcePoint" />
            <mxPoint x="810" y="889.71" as="targetPoint" />
          </mxGeometry>
        </mxCell>
        <mxCell id="01i8dN40vpGwu-gVk1U0-61" value="" style="endArrow=none;html=1;rounded=0;fillColor=#dae8fc;strokeColor=#6c8ebf;" edge="1" parent="1">
          <mxGeometry width="50" height="50" relative="1" as="geometry">
            <mxPoint x="1000" y="810" as="sourcePoint" />
            <mxPoint x="1000" y="740" as="targetPoint" />
            <Array as="points">
              <mxPoint x="1000" y="720" />
            </Array>
          </mxGeometry>
        </mxCell>
      </root>
    </mxGraphModel>
  </diagram>
</mxfile>
